<svg viewBox="0 0 700 420" xmlns="http://www.w3.org/2000/svg" font-family="Inter, Arial, sans-serif" role="img" aria-label="Ilustracija korak po korak: klikni oblak ikonu u Canvi (1), zatim gumb Ucini dostupnim offline u skociprozoru Promjene spremljene (2)">
  <rect x="0" y="0" width="700" height="420" rx="14" fill="#EDEDED"/>
  <rect x="0.75" y="0.75" width="698.5" height="418.5" rx="13.25" fill="none" stroke="rgba(23,18,15,0.1)" stroke-width="1.5"/>

  <defs>
    <linearGradient id="canvasGrad" x1="0" y1="0" x2="1" y2="1">
      <stop offset="0" stop-color="#CFEFE0"/>
      <stop offset="1" stop-color="#BFE3F5"/>
    </linearGradient>
  </defs>
  <rect x="0" y="64" width="700" height="356" fill="url(#canvasGrad)" opacity="0.5"/>

  <rect x="0" y="0" width="700" height="64" rx="14" fill="#FFFFFF"/>
  <rect x="0" y="50" width="700" height="14" fill="#FFFFFF"/>
  <rect x="0" y="63" width="700" height="1" fill="rgba(23,18,15,0.08)"/>

  <path d="M22 40 l4 -14 l14 -4 l-4 14 z" fill="none" stroke="#171412" stroke-width="1.6" stroke-linejoin="round"/>
  <text x="56" y="37" fill="#171412" font-size="14.5" font-weight="700">Uređivanje</text>
  <path d="M150 30 l5 6 l5 -6" fill="none" stroke="#171412" stroke-width="1.6" stroke-linecap="round" stroke-linejoin="round"/>

  <g transform="translate(196,20)" stroke="#B7B0A8" stroke-width="1.7" fill="none">
    <path d="M2 12 A12 12 0 1 1 14 24" />
    <path d="M2 12 l0 -6 M2 12 l6 1" stroke-linecap="round" stroke-linejoin="round"/>
  </g>
  <g transform="translate(236,20) scale(-1,1) translate(-24,0)" stroke="#B7B0A8" stroke-width="1.7" fill="none">
    <path d="M2 12 A12 12 0 1 1 14 24" />
    <path d="M2 12 l0 -6 M2 12 l6 1" stroke-linecap="round" stroke-linejoin="round"/>
  </g>

  <circle cx="646" cy="32" r="20" fill="none" stroke="#FF6B35" stroke-width="2" stroke-dasharray="3 3"/>
  <circle cx="646" cy="32" r="15" fill="#F1EAFF"/>
  <path d="M636 35 a7.5 7.5 0 0 1 2.6 -14.5 A9.8 9.8 0 0 1 658 23 a6 6 0 0 1 -1.5 11.8 Z" fill="none" stroke="#8B3DFF" stroke-width="1.7"/>
  <circle cx="662" cy="16" r="10" fill="#FF6B35"/>
  <text x="662" y="20" fill="#FFFFFF" font-size="12" font-weight="700" text-anchor="middle">1</text>

  <path d="M636 58 l10 -14 l10 14 z" fill="#FFFFFF" stroke="rgba(23,18,15,0.10)" stroke-width="1.5"/>

  <rect x="392" y="66" width="278" height="234" rx="14" fill="#171412" opacity="0.10"/>
  <rect x="384" y="58" width="278" height="234" rx="14" fill="#FFFFFF" stroke="rgba(23,18,15,0.10)" stroke-width="1.5"/>

  <text x="404" y="90" fill="#171412" font-size="14.5" font-weight="700">Promjene spremljene</text>
  <text x="642" y="90" fill="#171412" opacity="0.45" font-size="11.5" text-anchor="end">upravo sad</text>
  <line x1="384" y1="106" x2="662" y2="106" stroke="rgba(23,18,15,0.09)" stroke-width="1.25"/>

  <rect x="404" y="124" width="34" height="24" rx="5" fill="none" stroke="#8B3DFF" stroke-width="1.8"/>
  <path d="M421 148 v12 m0 0 l-6 -6 m6 6 l6 -6" stroke="#8B3DFF" stroke-width="1.8" fill="none" stroke-linecap="round" stroke-linejoin="round"/>

  <text x="452" y="137" fill="#171412" font-size="13.5" font-weight="700">Trebaš dizajnirati offline?</text>
  <text x="452" y="156" fill="#171412" opacity="0.62" font-size="11.5">Offline dizajni se spremaju na tvoj</text>
  <text x="452" y="171" fill="#171412" opacity="0.62" font-size="11.5">uređaj - vidljivi svima s pristupom.</text>

  <rect x="399" y="199" width="248" height="50" rx="12" fill="none" stroke="#FF6B35" stroke-width="2" stroke-dasharray="3 3"/>
  <rect x="404" y="204" width="238" height="40" rx="9" fill="#8B3DFF"/>
  <path d="M418 224 l5 5 l9 -10" stroke="#FFFFFF" stroke-width="2" fill="none" stroke-linecap="round" stroke-linejoin="round"/>
  <text x="530" y="229" fill="#FFFFFF" font-size="13" font-weight="600" text-anchor="middle">Učini dostupnim offline</text>
  <circle cx="654" cy="199" r="10" fill="#FF6B35"/>
  <text x="654" y="203" fill="#FFFFFF" font-size="12" font-weight="700" text-anchor="middle">2</text>
</svg>