<svg viewBox="0 0 1600 900" xmlns="http://www.w3.org/2000/svg" font-family="Inter, -apple-system, sans-serif">
  <defs>
    <style>
      .ink { stroke:#171412; stroke-width:5; fill:none; stroke-linecap:round; stroke-linejoin:round; }
      .inkThin { stroke:#171412; stroke-width:3; fill:none; stroke-linecap:round; stroke-linejoin:round; }
    </style>
  </defs>

  <rect width="1600" height="900" fill="#9FC68D"/>

  <text x="800" y="80" text-anchor="middle" font-size="40" font-weight="800" fill="#171412" letter-spacing="-0.5">Kako izračunati prosjek u Excelu i</text>
  <text x="800" y="128" text-anchor="middle" font-size="40" font-weight="800" fill="#171412" letter-spacing="-0.5">Google Sheetsu</text>
  <text x="800" y="168" text-anchor="middle" font-size="25" font-weight="600" fill="#171412">(AVERAGE za apsolutne početnike)</text>

  <g class="ink">
    <path d="M120 220 L127 237 L144 244 L127 251 L120 268 L113 251 L96 244 L113 237 Z"/>
    <path d="M1460 210 L1466 224 L1480 230 L1466 236 L1460 250 L1454 236 L1440 230 L1454 224 Z"/>
    <path d="M1420 620 L1426 632 L1438 638 L1426 644 L1420 656 L1414 644 L1402 638 L1414 632 Z"/>
  </g>

  <!-- spreadsheet grid, main illustration -->
  <g transform="translate(470,300)">
    <rect x="0" y="0" width="480" height="340" rx="14" fill="#FFFFFF" stroke="#171412" stroke-width="5"/>
    <rect x="0" y="0" width="480" height="52" fill="#266D35" stroke="#171412" stroke-width="5"/>
    <text x="26" y="33" font-size="19" font-weight="700" fill="#FFFFFF">A</text>
    <text x="146" y="33" font-size="19" font-weight="700" fill="#FFFFFF">B</text>
    <text x="326" y="33" font-size="19" font-weight="700" fill="#FFFFFF">C</text>
    <path class="inkThin" d="M120 0 V340"/>
    <path class="inkThin" d="M300 0 V340"/>
    <path class="inkThin" d="M0 100 H480"/>
    <path class="inkThin" d="M0 148 H480"/>
    <path class="inkThin" d="M0 196 H480"/>
    <path class="inkThin" d="M0 244 H480"/>
    <path class="inkThin" d="M0 285 H480"/>
    <rect x="120" y="100" width="180" height="185" fill="#8FB9A8" opacity="0.55"/>
    <text x="140" y="128" font-size="17" fill="#171412">12</text>
    <text x="140" y="176" font-size="17" fill="#171412">9</text>
    <text x="140" y="224" font-size="17" fill="#171412">15</text>
    <text x="140" y="270" font-size="17" fill="#171412">7</text>
    <rect x="0" y="285" width="480" height="55" fill="#E4F0DD"/>
    <text x="26" y="319" font-size="18" font-weight="700" fill="#171412">Prosjek</text>
    <text x="140" y="319" font-size="18" font-weight="800" fill="#171412">=AVERAGE(B2:B6)</text>
  </g>

  <!-- fx formula bar chip -->
  <g transform="translate(470,255)">
    <rect x="0" y="0" width="228" height="34" rx="8" fill="#FFFFFF" stroke="#171412" stroke-width="3"/>
    <text x="16" y="24" font-size="18" font-weight="800" fill="#171412" font-style="italic">fx</text>
    <text x="52" y="24" font-size="15" fill="#171412">=AVERAGE(B2:B6)</text>
  </g>

  <!-- calculator -->
  <g transform="translate(200,480)">
    <rect x="0" y="0" width="130" height="170" rx="12" fill="#FFFFFF" stroke="#171412" stroke-width="4"/>
    <rect x="14" y="16" width="102" height="34" rx="4" fill="#8FB9A8" opacity="0.5"/>
    <text x="24" y="40" font-size="16" font-weight="700" fill="#171412">10.8</text>
    <circle cx="32" cy="76" r="12" fill="none" stroke="#171412" stroke-width="3"/>
    <circle cx="65" cy="76" r="12" fill="none" stroke="#171412" stroke-width="3"/>
    <circle cx="98" cy="76" r="12" fill="none" stroke="#171412" stroke-width="3"/>
    <circle cx="32" cy="110" r="12" fill="none" stroke="#171412" stroke-width="3"/>
    <circle cx="65" cy="110" r="12" fill="#266D35" stroke="#171412" stroke-width="3"/>
    <circle cx="98" cy="110" r="12" fill="none" stroke="#171412" stroke-width="3"/>
    <circle cx="32" cy="144" r="12" fill="none" stroke="#171412" stroke-width="3"/>
    <circle cx="65" cy="144" r="12" fill="none" stroke="#171412" stroke-width="3"/>
    <circle cx="98" cy="144" r="12" fill="none" stroke="#171412" stroke-width="3"/>
  </g>

  <!-- pencil -->
  <g transform="translate(1080,610) rotate(35)">
    <rect x="0" y="0" width="16" height="110" rx="4" fill="#FFFFFF" stroke="#171412" stroke-width="3"/>
    <path d="M0 110 L8 132 L16 110 Z" fill="#171412"/>
    <rect x="0" y="-16" width="16" height="16" rx="3" fill="#F4907A" stroke="#171412" stroke-width="3"/>
  </g>

  <!-- coffee cup -->
  <g transform="translate(1150,480)">
    <path class="ink" d="M8 20 Q4 20 4 32 L10 78 Q12 92 28 92 L74 92 Q90 92 92 78 L98 32 Q98 20 90 20 Z"/>
    <path class="ink" d="M98 32 Q120 28 118 50 Q116 70 96 66"/>
    <path class="inkThin" d="M28 4 Q34 -8 28 -18"/>
    <path class="inkThin" d="M48 4 Q54 -8 48 -18"/>
    <path class="inkThin" d="M68 4 Q74 -8 68 -18"/>
  </g>

  <!-- checkmark badge -->
  <g transform="translate(1300,270)">
    <circle cx="42" cy="42" r="42" fill="#B98CE0" stroke="#171412" stroke-width="4"/>
    <path class="ink" d="M22 44 L36 58 L64 26" stroke="#171412" stroke-width="6"/>
  </g>

  <!-- speech bubble aha trick -->
  <g transform="translate(1020,195)">
    <path class="ink" d="M12 0 H210 Q222 0 222 12 V80 Q222 92 210 92 H120 L96 118 L102 92 H12 Q0 92 0 80 V12 Q0 0 12 0 Z" fill="#FFFFFF"/>
    <text x="111" y="36" text-anchor="middle" font-size="16" font-weight="700" fill="#171412">selektiraj mišem,</text>
    <text x="111" y="58" text-anchor="middle" font-size="16" font-weight="700" fill="#171412">statusna traka</text>
    <text x="111" y="80" text-anchor="middle" font-size="16" font-weight="700" fill="#171412">pokaže prosjek</text>
  </g>

  <!-- small icon labels row -->
  <g transform="translate(90,700)" font-size="17" font-weight="700" fill="#171412">
    <g>
      <rect x="0" y="0" width="30" height="30" rx="6" fill="#FFFFFF" stroke="#171412" stroke-width="3"/>
      <text x="6" y="21" font-size="13">Σ/n</text>
      <text x="40" y="21">prosjek</text>
    </g>
    <g transform="translate(175,0)">
      <rect x="0" y="0" width="30" height="30" rx="6" fill="#8FB9A8" opacity="0.6" stroke="#171412" stroke-width="3"/>
      <text x="40" y="21">raspon</text>
    </g>
    <g transform="translate(325,0)">
      <circle cx="15" cy="15" r="15" fill="#266D35" stroke="#171412" stroke-width="3"/>
      <text x="7" y="21" font-size="13" font-style="italic" fill="#FFFFFF">fx</text>
      <text x="40" y="21">AVERAGE formula</text>
    </g>
    <g transform="translate(600,0)">
      <circle cx="15" cy="15" r="15" fill="#F4907A" stroke="#171412" stroke-width="3"/>
      <text x="6" y="20" font-size="12" font-weight="800">0≠∅</text>
      <text x="40" y="21">prazno vs nula</text>
    </g>
  </g>

  <text x="60" y="850" font-size="34" font-weight="800" fill="#171412">Kužiš.</text>
</svg>
