<svg viewBox="0 0 1600 900" xmlns="http://www.w3.org/2000/svg" font-family="Inter, Arial, sans-serif">
  <rect width="1600" height="900" fill="#FFC93C"/>

  <!-- scattered stars -->
  <g stroke="#171412" stroke-width="4" stroke-linecap="round" fill="none">
    <path d="M120 90 L132 118 L160 130 L132 142 L120 170 L108 142 L80 130 L108 118 Z" fill="#171412" opacity="0.85"/>
    <path d="M1480 760 L1487 778 L1505 785 L1487 792 L1480 810 L1473 792 L1455 785 L1473 778 Z" fill="#171412" opacity="0.85"/>
    <path d="M1420 130 L1426 145 L1441 151 L1426 157 L1420 172 L1414 157 L1399 151 L1414 145 Z" fill="#171412" opacity="0.7"/>
  </g>

  <!-- magnifying glass over search results card -->
  <g transform="translate(760,120)">
    <rect x="0" y="0" width="430" height="300" rx="18" fill="#FFFFFF" stroke="#171412" stroke-width="6"/>
    <circle cx="70" cy="55" r="16" fill="#FFC93C" stroke="#171412" stroke-width="5"/>
    <line x1="100" y1="52" x2="380" y2="52" stroke="#171412" stroke-width="7" stroke-linecap="round"/>
    <line x1="100" y1="52" x2="380" y2="52" stroke="#171412" stroke-width="0"/>
    <line x1="30" y1="110" x2="400" y2="110" stroke="#171412" stroke-width="5" stroke-linecap="round" opacity="0.85"/>
    <line x1="30" y1="140" x2="330" y2="140" stroke="#171412" stroke-width="5" stroke-linecap="round" opacity="0.55"/>
    <line x1="30" y1="185" x2="400" y2="185" stroke="#171412" stroke-width="5" stroke-linecap="round" opacity="0.85"/>
    <line x1="30" y1="215" x2="300" y2="215" stroke="#171412" stroke-width="5" stroke-linecap="round" opacity="0.55"/>
    <line x1="30" y1="260" x2="400" y2="260" stroke="#171412" stroke-width="5" stroke-linecap="round" opacity="0.85"/>
    <line x1="30" y1="290" x2="260" y2="290" stroke="#171412" stroke-width="5" stroke-linecap="round" opacity="0.55"/>
    <!-- magnifying glass -->
    <g transform="translate(330,190)">
      <circle cx="0" cy="0" r="70" fill="rgba(255,255,255,0.15)" stroke="#171412" stroke-width="9"/>
      <line x1="50" y1="50" x2="110" y2="110" stroke="#171412" stroke-width="14" stroke-linecap="round"/>
    </g>
  </g>

  <!-- growing bar chart bottom right -->
  <g transform="translate(1230,560)">
    <rect x="0" y="140" width="46" height="90" rx="6" fill="#171412"/>
    <rect x="66" y="95" width="46" height="135" rx="6" fill="#171412"/>
    <rect x="132" y="45" width="46" height="185" rx="6" fill="#171412"/>
    <path d="M4 150 L70 100 L136 55 L200 10" stroke="#171412" stroke-width="6" fill="none" stroke-linecap="round"/>
    <path d="M172 10 L200 10 L200 38" stroke="#171412" stroke-width="6" fill="none" stroke-linecap="round" stroke-linejoin="round"/>
  </g>

  <!-- pencil + notepad bottom left -->
  <g transform="translate(120,560)">
    <rect x="0" y="0" width="160" height="130" rx="10" fill="#FFFFFF" stroke="#171412" stroke-width="6"/>
    <line x1="22" y1="35" x2="138" y2="35" stroke="#171412" stroke-width="5" stroke-linecap="round" opacity="0.7"/>
    <line x1="22" y1="65" x2="138" y2="65" stroke="#171412" stroke-width="5" stroke-linecap="round" opacity="0.7"/>
    <line x1="22" y1="95" x2="95" y2="95" stroke="#171412" stroke-width="5" stroke-linecap="round" opacity="0.7"/>
    <g transform="translate(140,-30) rotate(45)">
      <rect x="0" y="0" width="24" height="120" rx="6" fill="#FFFFFF" stroke="#171412" stroke-width="6"/>
      <polygon points="0,120 24,120 12,145" fill="#171412"/>
    </g>
  </g>

  <!-- speech bubble with question mark -->
  <g transform="translate(230,110)">
    <path d="M0 40 Q0 0 40 0 L150 0 Q190 0 190 40 L190 70 Q190 110 150 110 L60 110 L25 140 L35 110 L40 110 Q0 110 0 70 Z" fill="#FFFFFF" stroke="#171412" stroke-width="6"/>
    <text x="95" y="72" font-size="56" font-weight="800" fill="#171412" text-anchor="middle">?</text>
  </g>

  <!-- headline text -->
  <text x="80" y="330" font-size="62" font-weight="800" fill="#171412" letter-spacing="-1">Što je SEO?</text>
  <text x="80" y="400" font-size="62" font-weight="800" fill="#171412" letter-spacing="-1">Objašnjeno</text>
  <text x="80" y="470" font-size="62" font-weight="800" fill="#171412" letter-spacing="-1">jednostavno</text>

  <!-- 4 icon+label pairs for key terms -->
  <g font-size="20" font-weight="700" fill="#171412">
    <g transform="translate(80,540)">
      <circle cx="16" cy="16" r="16" fill="#FFFFFF" stroke="#171412" stroke-width="4"/>
      <circle cx="16" cy="16" r="6" fill="none" stroke="#171412" stroke-width="4"/>
      <line x1="24" y1="24" x2="30" y2="30" stroke="#171412" stroke-width="4" stroke-linecap="round"/>
      <text x="42" y="22">Google</text>
    </g>
    <g transform="translate(80,585)">
      <circle cx="16" cy="16" r="16" fill="#FFFFFF" stroke="#171412" stroke-width="4"/>
      <path d="M9 20 L16 8 L23 20 M11.5 16 L20.5 16" stroke="#171412" stroke-width="4" fill="none" stroke-linecap="round" stroke-linejoin="round"/>
      <text x="42" y="22">AI pretraga</text>
    </g>
    <g transform="translate(80,630)">
      <circle cx="16" cy="16" r="16" fill="#FFFFFF" stroke="#171412" stroke-width="4"/>
      <path d="M8 22 L14 14 L18 18 L24 8" stroke="#171412" stroke-width="4" fill="none" stroke-linecap="round" stroke-linejoin="round"/>
      <text x="42" y="22">Rangiranje</text>
    </g>
    <g transform="translate(80,675)">
      <circle cx="16" cy="16" r="16" fill="#FFFFFF" stroke="#171412" stroke-width="4"/>
      <line x1="9" y1="12" x2="23" y2="12" stroke="#171412" stroke-width="4" stroke-linecap="round"/>
      <line x1="9" y1="17" x2="23" y2="17" stroke="#171412" stroke-width="4" stroke-linecap="round"/>
      <line x1="9" y1="22" x2="18" y2="22" stroke="#171412" stroke-width="4" stroke-linecap="round"/>
      <text x="42" y="22">Sadržaj</text>
    </g>
  </g>

  <!-- Kužiš wordmark bottom-left -->
  <text x="80" y="850" font-size="34" font-weight="800" fill="#171412">Kužiš.</text>
</svg>
